<?xml version="1.0" standalone="no"?>
<!DOCTYPE svg PUBLIC "-//W3C//DTD SVG 20010904//EN"
 "http://www.w3.org/TR/2001/REC-SVG-20010904/DTD/svg10.dtd">
<svg version="1.0" xmlns="http://www.w3.org/2000/svg"
 width="230.000000pt" height="230.000000pt" viewBox="0 0 230.000000 230.000000"
 preserveAspectRatio="xMidYMid meet">
<metadata>
Created by potrace 1.11, written by Peter Selinger 2001-2013
</metadata>
<g transform="translate(0.000000,230.000000) scale(0.100000,-0.100000)"
fill="#000000" stroke="none">
<path d="M0 1150 l0 -1150 1148 0 1149 0 1 1150 2 1150 -1150 0 -1150 0 0
-1150z m1360 492 c0 -9 -9 -64 -20 -122 -27 -140 -28 -135 23 -105 30 17 59
25 89 25 187 0 158 -341 -37 -431 -85 -40 -286 -11 -271 38 3 10 14 70 25 133
41 236 62 356 66 376 4 18 -1 23 -30 28 -25 5 -35 12 -35 26 0 15 12 21 58 30
31 6 62 13 67 15 6 2 22 4 38 4 19 1 27 -4 27 -17z m824 2 c25 -10 22 -100 -3
-114 -48 -25 -101 1 -101 52 0 50 53 82 104 62z m-1671 -45 c29 -8 37 -14 33
-27 -5 -16 -26 -131 -26 -140 0 -2 -12 -2 -27 0 -26 3 -28 7 -33 57 -5 51 -7
55 -35 63 -65 18 -145 -28 -145 -84 0 -47 15 -63 102 -116 106 -64 129 -89
135 -146 18 -160 -192 -267 -370 -188 -45 20 -45 20 -37 59 4 21 11 55 14 76
6 33 10 37 36 37 30 0 30 0 30 -59 l0 -59 45 -11 c87 -22 165 22 165 93 -1 42
-23 68 -100 112 -86 49 -118 80 -131 126 -20 74 25 158 106 198 46 22 174 27
238 9z m1332 -113 l-7 -55 58 -3 c56 -3 59 -4 62 -30 l3 -28 -69 0 -68 0 -22
-117 c-36 -192 -30 -211 58 -199 44 6 50 5 50 -12 0 -24 -86 -52 -157 -52 -91
0 -102 37 -68 221 31 167 31 162 0 157 -20 -4 -25 -1 -25 17 0 15 11 26 35 38
22 10 47 36 66 67 26 42 35 50 61 50 l29 0 -6 -54z m296 -222 c-17 -86 -31
-163 -31 -170 0 -25 30 -44 60 -37 26 5 30 2 30 -16 0 -26 -32 -40 -106 -48
-106 -11 -116 21 -76 225 l29 142 -26 6 c-47 10 -53 14 -49 31 3 18 31 26 143
41 34 5 51 4 53 -4 2 -7 -11 -83 -27 -170z m-1341 167 c0 -5 -13 -80 -30 -166
-32 -169 -30 -195 15 -195 37 0 104 30 109 48 3 10 17 80 32 157 15 77 30 143
34 148 3 4 30 10 59 14 51 6 52 5 46 -18 -24 -96 -61 -328 -55 -344 6 -16 16
-20 49 -19 32 1 41 -3 41 -16 0 -31 -112 -62 -168 -48 -25 7 -34 15 -38 37
l-6 28 -56 -33 c-31 -19 -65 -34 -76 -35 -74 -4 -112 16 -121 65 -4 20 3 87
18 167 14 73 23 137 21 141 -3 5 -18 8 -35 8 -22 0 -29 5 -29 18 0 15 14 22
68 34 80 18 122 21 122 9z m1410 -661 l0 -30 -1055 0 -1055 0 0 30 0 30 1055
0 1055 0 0 -30z m0 -125 l0 -25 -1055 0 -1055 0 0 25 0 25 1055 0 1055 0 0
-25z m-60 -301 c22 -9 40 -23 40 -31 0 -16 -1 -16 -82 13 -63 22 -112 12 -155
-31 -22 -22 -33 -42 -33 -63 0 -30 29 -75 58 -91 27 -14 102 -24 102 -13 0 5
-21 12 -47 15 -35 4 -53 12 -70 32 -24 27 -30 55 -13 55 6 0 10 -6 10 -13 0
-8 9 -22 19 -31 22 -20 91 -39 91 -25 0 4 6 6 14 3 7 -3 26 6 42 20 l29 25
-32 1 c-48 0 -40 18 9 22 39 3 42 5 56 46 10 30 19 42 33 42 17 0 19 -8 19
-84 0 -47 -4 -88 -10 -91 -6 -4 -10 6 -10 24 l0 30 -51 -50 c-47 -48 -49 -52
-32 -65 10 -7 14 -14 9 -14 -5 0 -17 6 -25 14 -26 23 -116 23 -143 0 l-23 -19
18 22 c19 21 18 22 -12 37 -56 30 -77 106 -45 167 10 20 34 39 67 55 57 27 95
27 167 -2z m-490 6 c0 -5 3 -9 8 -9 24 4 38 -4 50 -28 17 -37 15 -73 -5 -95
-27 -30 -35 -20 -11 13 21 28 21 32 7 57 -23 42 -60 40 -133 -8 -35 -22 -68
-51 -74 -63 -10 -20 -11 -20 -9 10 0 18 3 30 6 27 2 -2 15 6 28 18 13 12 23
17 23 13 0 -5 7 1 16 13 8 12 19 22 25 22 5 0 18 9 29 20 22 22 40 26 40 10z
m86 -25 c-8 -8 -18 -15 -22 -15 -3 0 -1 7 6 15 7 8 17 15 22 15 5 0 3 -7 -6
-15z m-848 -17 c19 -19 14 -29 -8 -16 -32 20 -42 -4 -31 -74 2 -12 29 -9 37 3
3 6 0 15 -7 20 -17 10 -5 23 15 16 23 -9 4 -51 -24 -55 -28 -5 -40 12 -40 60
0 25 6 40 18 47 22 13 26 13 40 -1z m1101 -9 c-8 -16 -8 -28 0 -48 11 -24 10
-25 -4 -7 -8 11 -15 24 -15 29 0 11 19 47 26 47 2 0 0 -10 -7 -21z m-1011 4
c-36 -5 -40 -42 -5 -44 l22 -2 -22 -4 c-34 -6 -30 -41 5 -46 22 -3 20 -4 -10
-6 l-38 -1 0 55 0 55 38 -1 c30 -2 32 -3 10 -6z m71 -30 l20 -38 1 38 c0 20 5
37 10 37 6 0 10 -25 10 -55 0 -30 -4 -55 -10 -55 -5 0 -18 17 -29 38 l-20 37
-1 -37 c0 -21 -4 -38 -10 -38 -5 0 -10 25 -10 55 0 30 4 55 10 55 5 0 18 -17
29 -37z m109 30 c-36 -5 -40 -42 -5 -44 l22 -2 -22 -4 c-34 -6 -30 -41 5 -46
25 -4 25 -4 -5 -6 l-33 -1 0 55 0 55 33 -1 c30 -2 30 -2 5 -6z m108 -53 c2
-47 0 -51 -8 -27 -12 34 -38 36 -38 2 0 -14 -4 -25 -10 -25 -5 0 -10 25 -10
56 l0 55 33 -3 c32 -3 32 -4 33 -58z m84 19 c6 -22 14 -47 17 -55 3 -8 0 -14
-6 -14 -6 0 -11 7 -11 15 0 20 -36 19 -44 -1 -4 -9 -9 -14 -12 -11 -8 8 26
107 36 107 5 0 14 -18 20 -41z m50 -8 c0 -43 3 -50 23 -54 19 -4 19 -4 -5 -6
-25 -1 -26 2 -30 54 -1 30 0 55 5 55 4 0 7 -22 7 -49z m260 39 c0 -5 -4 -10
-10 -10 -5 0 -10 5 -10 10 0 6 5 10 10 10 6 0 10 -4 10 -10z m-55 -70 c0 -13
-5 -25 -11 -27 -7 -2 -11 4 -10 13 2 26 -20 27 -43 3 -12 -13 -21 -17 -21 -11
0 14 60 53 75 49 6 -2 10 -14 10 -27z m-548 -66 c2 -13 1 -15 -4 -4 -3 8 -11
19 -17 23 -7 6 -6 7 4 4 8 -2 16 -12 17 -23z m57 18 c-19 -12 -27 -52 -11 -52
19 0 40 26 32 40 -3 5 -1 10 6 10 7 0 9 -8 5 -22 -4 -13 -8 -35 -10 -50 -1
-15 -6 -31 -10 -35 -4 -4 -5 4 -1 20 6 22 4 27 -12 27 -11 0 -24 -11 -30 -27
-11 -26 -11 -25 -6 12 8 56 20 85 35 85 9 0 10 -3 2 -8z m110 2 c33 -13 8
-114 -28 -114 -28 0 -38 26 -26 68 6 22 16 43 23 45 6 3 13 6 14 6 1 1 8 -2
17 -5z m88 -4 c6 0 8 -11 6 -24 -3 -14 -1 -30 3 -37 13 -22 -9 -49 -41 -49
-30 0 -30 1 -30 54 0 54 10 69 38 60 8 -2 18 -4 24 -4z m58 -56 c0 -30 -4 -54
-10 -54 -6 0 -10 27 -10 61 0 37 4 58 10 54 6 -3 10 -31 10 -61z m84 50 c30
-29 13 -104 -22 -104 -28 0 -42 21 -42 60 0 55 32 77 64 44z m56 -40 c0 -37 3
-44 20 -44 11 0 20 -5 20 -11 0 -6 -14 -9 -32 -7 -19 2 -33 8 -32 16 1 6 2 33
3 58 1 59 21 48 21 -12z m119 42 c17 -21 10 -87 -11 -100 -28 -17 -52 5 -56
48 -4 41 11 66 38 66 10 0 23 -6 29 -14z m91 -1 c7 -9 9 -19 5 -23 -4 -4 -10
-1 -12 6 -3 6 -11 12 -19 12 -10 0 -14 -12 -14 -40 0 -30 4 -40 16 -40 11 0
14 6 9 20 -5 14 -2 20 10 20 12 0 15 -7 13 -27 -3 -24 -8 -28 -33 -28 -28 0
-30 3 -36 43 -8 61 29 96 61 57z m60 -11 c0 -21 18 -17 25 6 3 11 11 20 16 20
12 0 12 -4 -6 -47 -8 -19 -15 -44 -15 -54 0 -11 -4 -19 -10 -19 -5 0 -10 9
-10 20 0 11 -6 36 -14 55 -14 33 -12 50 5 39 5 -3 9 -12 9 -20z m250 16 c0 -5
-5 -10 -11 -10 -5 0 -7 5 -4 10 3 6 8 10 11 10 2 0 4 -4 4 -10z m-1162 -26 c0
-18 -3 -22 -9 -13 -11 18 -11 39 0 39 5 0 9 -12 9 -26z m61 -16 c-12 -55 -21
-73 -14 -30 3 20 1 31 -5 27 -6 -4 -5 5 2 19 18 40 27 31 17 -16z m40 0 c-14
-61 -20 -70 -14 -19 5 41 12 61 20 61 1 0 -1 -19 -6 -42z m38 2 c-13 -49 1
-72 30 -50 17 13 17 13 1 -4 -36 -40 -62 7 -38 68 15 39 19 31 7 -14z m-167
-57 c-10 -16 -11 -15 -6 7 3 14 6 32 7 40 1 8 4 5 6 -7 2 -12 -1 -30 -7 -40z
m43 1 c-7 -19 -10 -18 -16 5 -3 13 -1 18 9 14 7 -2 10 -11 7 -19z"/>
<path d="M1343 1355 c-18 -8 -33 -16 -33 -18 0 -2 -11 -64 -25 -137 -28 -150
-26 -160 37 -160 71 0 128 86 136 207 4 67 3 73 -21 97 -29 29 -48 31 -94 11z"/>
<path d="M2201 260 c-8 -24 -7 -30 5 -30 9 0 14 10 14 30 0 17 -2 30 -4 30 -2
0 -9 -13 -15 -30z"/>
<path d="M2166 195 c-3 -9 -22 -25 -41 -36 -42 -25 -40 -37 3 -15 29 15 70 66
53 66 -5 0 -11 -7 -15 -15z"/>
<path d="M1230 280 c0 -11 7 -20 15 -20 8 0 15 9 15 20 0 11 -7 20 -15 20 -8
0 -15 -9 -15 -20z"/>
<path d="M1330 261 c0 -12 5 -21 10 -21 6 0 10 6 10 14 0 8 -4 18 -10 21 -5 3
-10 -3 -10 -14z"/>
<path d="M1203 168 c-6 -7 -14 -28 -18 -46 -5 -25 -3 -33 10 -38 24 -9 37 9
39 52 1 39 -14 54 -31 32z"/>
<path d="M1286 155 c-3 -9 0 -15 9 -15 8 0 15 7 15 15 0 8 -4 15 -9 15 -5 0
-11 -7 -15 -15z"/>
<path d="M1290 105 c0 -8 5 -15 10 -15 6 0 10 7 10 15 0 8 -4 15 -10 15 -5 0
-10 -7 -10 -15z"/>
<path d="M1424 156 c-8 -22 -1 -59 13 -64 17 -5 27 22 19 53 -7 28 -24 33 -32
11z"/>
<path d="M1594 157 c-9 -25 0 -62 16 -62 10 0 15 10 15 34 0 36 -21 54 -31 28z"/>
</g>
</svg>
