<?xml version="1.0" standalone="yes"?>

<svg version="1.1" viewBox="0.0 0.0 108.16010498687665 100.0" fill="none" stroke="none" stroke-linecap="square" stroke-miterlimit="10" xmlns="http://www.w3.org/2000/svg" xmlns:xlink="http://www.w3.org/1999/xlink"><clipPath id="p.0"><path d="m0 0l108.1601 0l0 100.0l-108.1601 0l0 -100.0z" clip-rule="nonzero"></path></clipPath><g clip-path="url(#p.0)"><path fill="#000000" fill-opacity="0.0" d="m0 0l108.1601 0l0 100.0l-108.1601 0z" fill-rule="evenodd"></path><path fill="#999999" d="m0 88.77165l0 0c0 -6.2012405 5.027102 -11.228348 11.228347 -11.228348l0 0c2.9779425 0 5.8339167 1.1829834 7.939639 3.2887115c2.1057243 2.1057205 3.2887077 4.961693 3.2887077 7.939636l0 0c0 6.201248 -5.0271034 11.228348 -11.228347 11.228348l0 0c-6.201245 0 -11.228347 -5.0270996 -11.228347 -11.228348z" fill-rule="evenodd"></path><path stroke="#999999" stroke-width="1.0" stroke-linejoin="round" stroke-linecap="butt" d="m0 88.77165l0 0c0 -6.2012405 5.027102 -11.228348 11.228347 -11.228348l0 0c2.9779425 0 5.8339167 1.1829834 7.939639 3.2887115c2.1057243 2.1057205 3.2887077 4.961693 3.2887077 7.939636l0 0c0 6.201248 -5.0271034 11.228348 -11.228347 11.228348l0 0c-6.201245 0 -11.228347 -5.0270996 -11.228347 -11.228348z" fill-rule="evenodd"></path><path fill="#999999" d="m13.643044 28.202099l0 0c0 -6.2012444 5.0271025 -11.228346 11.228347 -11.228346l0 0c2.9779415 0 5.8339157 1.1829834 7.93964 3.2887077c2.1057243 2.1057224 3.2887077 4.9616966 3.2887077 7.939638l0 0c0 6.2012444 -5.0271034 11.228348 -11.228348 11.228348l0 0c-6.2012444 0 -11.228347 -5.0271034 -11.228347 -11.228348z" fill-rule="evenodd"></path><path stroke="#999999" stroke-width="1.0" stroke-linejoin="round" stroke-linecap="butt" d="m13.643044 28.202099l0 0c0 -6.2012444 5.0271025 -11.228346 11.228347 -11.228346l0 0c2.9779415 0 5.8339157 1.1829834 7.93964 3.2887077c2.1057243 2.1057224 3.2887077 4.9616966 3.2887077 7.939638l0 0c0 6.2012444 -5.0271034 11.228348 -11.228348 11.228348l0 0c-6.2012444 0 -11.228347 -5.0271034 -11.228347 -11.228348z" fill-rule="evenodd"></path><path fill="#999999" d="m41.854332 56.485565l0 0c0 -6.2012444 5.0270996 -11.228348 11.228344 -11.228348l0 0c2.9779434 0 5.8339195 1.1829834 7.93964 3.2887077c2.1057243 2.1057243 3.288704 4.9616966 3.288704 7.93964l0 0c0 6.2012444 -5.0270996 11.228348 -11.228344 11.228348l0 0c-6.2012444 0 -11.228344 -5.0271034 -11.228344 -11.228348z" fill-rule="evenodd"></path><path stroke="#999999" stroke-width="1.0" stroke-linejoin="round" stroke-linecap="butt" d="m41.854332 56.485565l0 0c0 -6.2012444 5.0270996 -11.228348 11.228344 -11.228348l0 0c2.9779434 0 5.8339195 1.1829834 7.93964 3.2887077c2.1057243 2.1057243 3.288704 4.9616966 3.288704 7.93964l0 0c0 6.2012444 -5.0270996 11.228348 -11.228344 11.228348l0 0c-6.2012444 0 -11.228344 -5.0271034 -11.228344 -11.228348z" fill-rule="evenodd"></path><path fill="#999999" d="m67.64698 11.228347l0 0c0 -6.201245 5.0270996 -11.228347 11.228348 -11.228347l0 0c2.9779434 0 5.8339157 1.1829832 7.939636 3.2887065c2.1057281 2.1057236 3.2887115 4.9616966 3.2887115 7.93964l0 0c0 6.2012434 -5.0270996 11.228347 -11.228348 11.228347l0 0c-6.201248 0 -11.228348 -5.0271034 -11.228348 -11.228347z" fill-rule="evenodd"></path><path stroke="#999999" stroke-width="1.0" stroke-linejoin="round" stroke-linecap="butt" d="m67.64698 11.228347l0 0c0 -6.201245 5.0270996 -11.228347 11.228348 -11.228347l0 0c2.9779434 0 5.8339157 1.1829832 7.939636 3.2887065c2.1057281 2.1057236 3.2887115 4.9616966 3.2887115 7.93964l0 0c0 6.2012434 -5.0270996 11.228347 -11.228348 11.228347l0 0c-6.201248 0 -11.228348 -5.0271034 -11.228348 -11.228347z" fill-rule="evenodd"></path><path fill="#999999" d="m85.7021 88.77165l0 0c0 -6.2012405 5.0270996 -11.228348 11.22834 -11.228348l0 0c2.9779434 0 5.8339233 1.1829834 7.939644 3.2887115c2.1057205 2.1057205 3.288704 4.961693 3.288704 7.939636l0 0c0 6.201248 -5.0270996 11.228348 -11.228348 11.228348l0 0c-6.2012405 0 -11.22834 -5.0270996 -11.22834 -11.228348z" fill-rule="evenodd"></path><path stroke="#999999" stroke-width="1.0" stroke-linejoin="round" stroke-linecap="butt" d="m85.7021 88.77165l0 0c0 -6.2012405 5.0270996 -11.228348 11.22834 -11.228348l0 0c2.9779434 0 5.8339233 1.1829834 7.939644 3.2887115c2.1057205 2.1057205 3.288704 4.961693 3.288704 7.939636l0 0c0 6.201248 -5.0270996 11.228348 -11.228348 11.228348l0 0c-6.2012405 0 -11.22834 -5.0270996 -11.22834 -11.228348z" fill-rule="evenodd"></path><path fill="#000000" fill-opacity="0.0" d="m24.624672 28.784777l-14.488189 60.72441" fill-rule="evenodd"></path><path stroke="#999999" stroke-width="8.0" stroke-linejoin="round" stroke-linecap="butt" d="m24.624672 28.784777l-14.488189 60.72441" fill-rule="evenodd"></path><path fill="#000000" fill-opacity="0.0" d="m25.291338 29.283464l29.44882 29.291338" fill-rule="evenodd"></path><path stroke="#999999" stroke-width="8.0" stroke-linejoin="round" stroke-linecap="butt" d="m25.291338 29.283464l29.44882 29.291338" fill-rule="evenodd"></path><path fill="#000000" fill-opacity="0.0" d="m54.574802 57.569553l24.125988 -45.259842" fill-rule="evenodd"></path><path stroke="#999999" stroke-width="8.0" stroke-linejoin="round" stroke-linecap="butt" d="m54.574802 57.569553l24.125988 -45.259842" fill-rule="evenodd"></path><path fill="#000000" fill-opacity="0.0" d="m78.703415 12.312336l18.645668 77.19685" fill-rule="evenodd"></path><path stroke="#999999" stroke-width="8.0" stroke-linejoin="round" stroke-linecap="butt" d="m78.703415 12.312336l18.645668 77.19685" fill-rule="evenodd"></path></g></svg>

