<?xml version="1.0" standalone="yes"?>

<svg version="1.1" viewBox="0.0 0.0 108.16010498687665 100.0" fill="none" stroke="none" stroke-linecap="square" stroke-miterlimit="10" xmlns="http://www.w3.org/2000/svg" xmlns:xlink="http://www.w3.org/1999/xlink"><clipPath id="p.0"><path d="m0 0l108.1601 0l0 100.0l-108.1601 0l0 -100.0z" clip-rule="nonzero"></path></clipPath><g clip-path="url(#p.0)"><path fill="#000000" fill-opacity="0.0" d="m0 0l108.1601 0l0 100.0l-108.1601 0z" fill-rule="evenodd"></path><path fill="#999999" d="m6.821522 16.897638l0 0c0 -8.410384 6.817963 -15.228347 15.228348 -15.228347l0 0c4.038807 0 7.912197 1.6044105 10.768066 4.4602795c2.8558693 2.8558683 4.4602776 6.7292585 4.4602776 10.768067l0 0c0 8.410383 -6.8179607 15.228346 -15.228344 15.228346l0 0c-8.410384 0 -15.228348 -6.8179626 -15.228348 -15.228346z" fill-rule="evenodd"></path><path stroke="#999999" stroke-width="1.0" stroke-linejoin="round" stroke-linecap="butt" d="m6.821522 16.897638l0 0c0 -8.410384 6.817963 -15.228347 15.228348 -15.228347l0 0c4.038807 0 7.912197 1.6044105 10.768066 4.4602795c2.8558693 2.8558683 4.4602776 6.7292585 4.4602776 10.768067l0 0c0 8.410383 -6.8179607 15.228346 -15.228344 15.228346l0 0c-8.410384 0 -15.228348 -6.8179626 -15.228348 -15.228346z" fill-rule="evenodd"></path><path fill="#999999" d="m8.3202095 80.78215l0 0c0 -8.410385 6.8179636 -15.228348 15.228348 -15.228348l0 0c4.038807 0 7.912197 1.6044159 10.768066 4.4602814c2.8558693 2.855873 4.4602776 6.7292633 4.4602776 10.768066l0 0c0 8.410385 -6.8179607 15.228348 -15.228344 15.228348l0 0c-8.410384 0 -15.228348 -6.8179626 -15.228348 -15.228348z" fill-rule="evenodd"></path><path stroke="#999999" stroke-width="1.0" stroke-linejoin="round" stroke-linecap="butt" d="m8.3202095 80.78215l0 0c0 -8.410385 6.8179636 -15.228348 15.228348 -15.228348l0 0c4.038807 0 7.912197 1.6044159 10.768066 4.4602814c2.8558693 2.855873 4.4602776 6.7292633 4.4602776 10.768066l0 0c0 8.410385 -6.8179607 15.228348 -15.228344 15.228348l0 0c-8.410384 0 -15.228348 -6.8179626 -15.228348 -15.228348z" fill-rule="evenodd"></path><path fill="#000000" fill-opacity="0.0" d="m37.278214 16.897638c12.724411 0 19.086617 6.5748024 25.448822 13.149607c6.3622055 6.5748024 12.724411 13.149605 25.448814 13.149605" fill-rule="evenodd"></path><path stroke="#999999" stroke-width="8.0" stroke-linejoin="round" stroke-linecap="butt" d="m37.278214 16.897638c12.724411 0 19.086617 6.5748024 25.448822 13.149607c6.3622055 6.5748024 12.724411 13.149605 25.448814 13.149605" fill-rule="evenodd"></path><path fill="#000000" fill-opacity="0.0" d="m90.68241 52.15223c-12.976372 0 -19.464561 7.157482 -25.952751 14.314964c-6.4881897 7.1574783 -12.976379 14.314957 -25.952759 14.314957" fill-rule="evenodd"></path><path stroke="#999999" stroke-width="8.0" stroke-linejoin="round" stroke-linecap="butt" d="m90.68241 52.15223c-12.976372 0 -19.464561 7.157482 -25.952751 14.314964c-6.4881897 7.1574783 -12.976379 14.314957 -25.952759 14.314957" fill-rule="evenodd"></path><path fill="#000000" fill-opacity="0.0" d="m23.548557 65.5538c0 -8.357002 -0.37795448 -12.536839 -0.75590706 -16.714005c-0.37795258 -4.177166 -0.75590515 -8.351658 -0.75590515 -16.703316" fill-rule="evenodd"></path><path stroke="#999999" stroke-width="8.0" stroke-linejoin="round" stroke-linecap="butt" d="m23.548557 65.5538c0 -8.357002 -0.37795448 -12.536839 -0.75590706 -16.714005c-0.37795258 -4.177166 -0.75590515 -8.351658 -0.75590515 -16.703316" fill-rule="evenodd"></path><path fill="#999999" d="m71.215225 46.671917l0 0c0 -8.636517 7.001274 -15.637796 15.6377945 -15.637796l0 0c4.1474 0 8.124931 1.6475506 11.057587 4.580206c2.9326553 2.9326553 4.580208 6.910187 4.580208 11.0575905l0 0c0 8.636517 -7.0012817 15.6377945 -15.6377945 15.6377945l0 0c-8.63652 0 -15.6377945 -7.001278 -15.6377945 -15.6377945z" fill-rule="evenodd"></path><path stroke="#999999" stroke-width="1.0" stroke-linejoin="round" stroke-linecap="butt" d="m71.215225 46.671917l0 0c0 -8.636517 7.001274 -15.637796 15.6377945 -15.637796l0 0c4.1474 0 8.124931 1.6475506 11.057587 4.580206c2.9326553 2.9326553 4.580208 6.910187 4.580208 11.0575905l0 0c0 8.636517 -7.0012817 15.6377945 -15.6377945 15.6377945l0 0c-8.63652 0 -15.6377945 -7.001278 -15.6377945 -15.6377945z" fill-rule="evenodd"></path></g></svg>

