<?xml version="1.0" standalone="yes"?>

<svg version="1.1" viewBox="0.0 0.0 108.16010498687665 100.0" fill="none" stroke="none" stroke-linecap="square" stroke-miterlimit="10" xmlns="http://www.w3.org/2000/svg" xmlns:xlink="http://www.w3.org/1999/xlink"><clipPath id="p.0"><path d="m0 0l108.1601 0l0 100.0l-108.1601 0l0 -100.0z" clip-rule="nonzero"></path></clipPath><g clip-path="url(#p.0)"><path fill="#000000" fill-opacity="0.0" d="m0 0l108.1601 0l0 100.0l-108.1601 0z" fill-rule="evenodd"></path><path fill="#999999" d="m39.704723 6.4724407l0 0c0 -1.320839E-4 1.0681152E-4 -2.3937225E-4 2.4032593E-4 -2.3937225E-4l28.755669 2.3937225E-4c6.1035156E-5 0 1.2207031E-4 2.527237E-5 1.6784668E-4 7.05719E-5c4.5776367E-5 4.4822693E-5 6.866455E-5 1.0585785E-4 6.866455E-5 1.6927719E-4l-2.3651123E-4 26.298971c0 1.335144E-4 -1.0681152E-4 2.4032593E-4 -2.4414062E-4 2.4032593E-4l-28.755665 -2.4032593E-4l0 0c-1.296997E-4 0 -2.4032593E-4 -1.0681152E-4 -2.4032593E-4 -2.3651123E-4z" fill-rule="evenodd"></path><path fill="#999999" d="m0.001312336 93.52756l54.07874 -87.055115l54.07874 87.055115z" fill-rule="evenodd"></path></g></svg>

