<?xml version="1.0" standalone="yes"?>

<svg version="1.1" viewBox="0.0 0.0 108.16010498687665 100.0" fill="none" stroke="none" stroke-linecap="square" stroke-miterlimit="10" xmlns="http://www.w3.org/2000/svg" xmlns:xlink="http://www.w3.org/1999/xlink"><clipPath id="p.0"><path d="m0 0l108.1601 0l0 100.0l-108.1601 0l0 -100.0z" clip-rule="nonzero"></path></clipPath><g clip-path="url(#p.0)"><path fill="#000000" fill-opacity="0.0" d="m0 0l108.1601 0l0 100.0l-108.1601 0z" fill-rule="evenodd"></path><path fill="#999999" d="m0 20.0l0 0c0 -11.045695 8.954305 -20.0 20.0 -20.0l0 0c5.304329 0 10.391409 2.1071367 14.142136 5.8578644c3.7507286 3.7507277 5.8578644 8.837806 5.8578644 14.142136l0 0c0 11.045694 -8.954306 20.0 -20.0 20.0l0 0c-11.045695 0 -20.0 -8.954306 -20.0 -20.0z" fill-rule="evenodd"></path><path fill="#999999" d="m0 80.0l0 0c0 -11.045692 8.954305 -20.0 20.0 -20.0l0 0c5.304329 0 10.391409 2.1071358 14.142136 5.8578644c3.7507286 3.7507248 5.8578644 8.837807 5.8578644 14.142136l0 0c0 11.045692 -8.954306 20.0 -20.0 20.0l0 0c-11.045695 0 -20.0 -8.954308 -20.0 -20.0z" fill-rule="evenodd"></path><path fill="#000000" fill-opacity="0.0" d="m20.0 35.692913l0 60.000004" fill-rule="evenodd"></path><path stroke="#999999" stroke-width="8.0" stroke-linejoin="round" stroke-linecap="butt" d="m20.0 35.692913l0 60.000004" fill-rule="evenodd"></path><path fill="#999999" d="m48.154854 38.567043l0 0c0 -3.157219 2.559433 -5.716648 5.716652 -5.716648l48.566704 0c1.5161438 0 2.9701996 0.6022873 4.0422745 1.674366c1.0720825 1.0720787 1.6743698 2.5261307 1.6743698 4.042282l0 22.865913c0 3.157215 -2.559433 5.716648 -5.7166443 5.716648l-48.566704 0c-3.157219 0 -5.716652 -2.559433 -5.716652 -5.716648z" fill-rule="evenodd"></path><path fill="#000000" fill-opacity="0.0" d="m17.698162 49.68504l30.456692 0.31496048" fill-rule="evenodd"></path><path stroke="#999999" stroke-width="8.0" stroke-linejoin="round" stroke-linecap="butt" d="m17.698162 49.68504l30.456692 0.31496048" fill-rule="evenodd"></path></g></svg>

