<?xml version="1.0" standalone="yes"?>

<svg version="1.1" viewBox="0.0 0.0 108.16010498687665 100.0" fill="none" stroke="none" stroke-linecap="square" stroke-miterlimit="10" xmlns="http://www.w3.org/2000/svg" xmlns:xlink="http://www.w3.org/1999/xlink"><clipPath id="p.0"><path d="m0 0l108.1601 0l0 100.0l-108.1601 0l0 -100.0z" clip-rule="nonzero"></path></clipPath><g clip-path="url(#p.0)"><path fill="#000000" fill-opacity="0.0" d="m0 0l108.1601 0l0 100.0l-108.1601 0z" fill-rule="evenodd"></path><path fill="#000000" fill-opacity="0.0" d="m10.772965 50.0l0 0c0 -23.917843 19.389244 -43.307087 43.307087 -43.307087l0 0c11.485752 0 22.50108 4.562698 30.622738 12.684353c8.121651 8.1216545 12.684349 19.136982 12.684349 30.622734l0 0c0 23.917847 -19.389244 43.307083 -43.307087 43.307083l0 0c-23.917843 0 -43.307087 -19.389236 -43.307087 -43.307083z" fill-rule="evenodd"></path><path stroke="#999999" stroke-width="16.0" stroke-linejoin="round" stroke-linecap="butt" d="m10.772965 50.0l0 0c0 -23.917843 19.389244 -43.307087 43.307087 -43.307087l0 0c11.485752 0 22.50108 4.562698 30.622738 12.684353c8.121651 8.1216545 12.684349 19.136982 12.684349 30.622734l0 0c0 23.917847 -19.389244 43.307083 -43.307087 43.307083l0 0c-23.917843 0 -43.307087 -19.389236 -43.307087 -43.307083z" fill-rule="evenodd"></path></g></svg>

