<?xml version="1.0" encoding="utf-8"?><svg version="1.1" id="Layer_1" xmlns="http://www.w3.org/2000/svg" xmlns:xlink="http://www.w3.org/1999/xlink" x="0px" y="0px" width="30.5px" height="30.5px" viewBox="0 0 30.5 30.5" style="enable-background:new 0 0 30.5 30.5;" xml:space="preserve"><style type="text/css">.st0{fill:#FFFFFF;}.st1{opacity:0.4;}.st2{fill:#111111;}.st3{fill:none;stroke:#444444;stroke-width:1.5;stroke-miterlimit:10;}</style><g><g><circle class="st0" cx="15.3" cy="15.3" r="13"/><g class="st1"><path class="st0" d="M15.3,2.3c7.2,0,13,5.8,13,13s-5.8,13-13,13s-13-5.8-13-13S8.1,2.3,15.3,2.3 M15.3,0.3c-8.3,0-15,6.7-15,15s6.7,15,15,15s15-6.7,15-15S23.5,0.3,15.3,0.3L15.3,0.3z"/></g><path class="st2" d="M15.3,3.3c6.6,0,12,5.4,12,12s-5.4,12-12,12s-12-5.4-12-12S8.6,3.3,15.3,3.3 M15.3,2.3c-7.2,0-13,5.8-13,13s5.8,13,13,13s13-5.8,13-13S22.4,2.3,15.3,2.3L15.3,2.3z"/></g><line class="st3" x1="8.8" y1="15.3" x2="21.8" y2="15.3"/><line class="st3" x1="15.3" y1="8.8" x2="15.3" y2="21.8"/></g></svg>